<?xml version="1.0" encoding="UTF-8"?>
<svg width="60px" height="44px" viewBox="0 0 60 44" version="1.1" xmlns="http://www.w3.org/2000/svg" xmlns:xlink="http://www.w3.org/1999/xlink">
    <title>Group 13</title>
    <defs>
        <polygon id="path-1" points="0 0 60 0 60 44 0 44"></polygon>
    </defs>
    <g id="screen" stroke="none" stroke-width="1" fill="none" fill-rule="evenodd">
        <g id="4-1_new_step_0_notice_to_applicant" transform="translate(-344.000000, -383.000000)">
            <g id="Group-6" transform="translate(270.000000, 111.000000)">
                <g id="Group-5" transform="translate(74.000000, 200.000000)">
                    <g id="Group-13" transform="translate(0.000000, 72.000000)">
                        <mask id="mask-2" fill="white">
                            <use xlink:href="#path-1"></use>
                        </mask>
                        <g id="Clip-2"></g>
                        <path d="M33.4402264,13.3271759 L54.560198,13.3271759 L54.560198,6.58174078 L33.4402264,6.58174078 L33.4402264,13.3271759 Z M4.64022657,39.3456482 L53.6001414,39.3456482 L53.6001414,36.4545647 L4.64022657,36.4545647 L4.64022657,39.3456482 Z M4.63980195,33.5634813 L29.6,33.5634813 L29.6,6.58174078 L4.63980195,6.58174078 L4.63980195,33.5634813 Z M56.0000707,0.8 L34.3998584,0.8 L34.3998584,3.69065734 L24.8001416,3.69065734 L24.8001416,0.8 L3.19992935,0.8 C1.87512765,0.799573901 0.8,1.87749665 0.8,3.20774454 L0.8,3.20902321 L0.8,40.7909768 C0.8,42.1212247 1.87342919,43.1995736 3.1986555,43.2 L3.19992935,43.2 L56.0000707,43.2 C57.3248723,43.2004261 58.4,42.1225033 58.4,40.7922555 L58.4,40.7909768 L58.4,3.20902321 C58.4,1.87877533 57.3265708,0.800426351 56.0013445,0.8 L56.0000707,0.8 Z" id="Fill-1" fill="#7B73FF" mask="url(#mask-2)"></path>
                        <path d="M15.2865142,15.8156467 C16.2546243,15.5992604 17.4070149,15.0946251 18.5598302,14.0106973 C18.5598302,14.0106973 19.4909992,15.323787 20.7053828,15.8156467 C21.2348711,16.0312345 21.8165863,16.0899223 22.4,15.8156467 L22.4,14.0106973 C22.4,12.0165097 20.6807555,10.4 18.5598302,10.4 L16.6401698,10.4 C14.5192445,10.4 12.8,12.0165097 12.8,14.0106973 L12.8,15.8156467 C12.8,15.8156467 13.835623,16.1406254 15.2865142,15.8156467" id="Fill-3" fill="#7B73FF" mask="url(#mask-2)"></path>
                        <path d="M19.5199151,24.8 C19.5199151,25.8406877 18.6604861,26.6842407 17.5997877,26.6842407 C16.5395139,26.6842407 15.6800849,25.8406877 15.6800849,24.8 C15.6800849,24.8 8,27.0084918 8,28.5688982 L8,32.8 L27.2,32.8 L27.2,28.5688982 C27.2,27.0084918 19.5199151,24.8 19.5199151,24.8" id="Fill-4" fill="#7B73FF" mask="url(#mask-2)"></path>
                        <path d="M58.0644057,40.6521923 C58.0644057,41.4446154 57.4142138,42.0864231 56.6129239,42.0868462 L3.38707606,42.0868462 C2.58578624,42.0864231 1.93645041,41.4446154 1.93559433,40.6521923 L1.93559433,3.34780769 C1.93645041,2.55580769 2.58578624,1.914 3.38707606,1.91315385 L24.193645,1.91315385 L24.193645,3.82630769 C24.193645,4.35430769 24.626821,4.78246154 25.1614422,4.78246154 L34.8385578,4.78246154 C35.373179,4.78246154 35.806355,4.35430769 35.806355,3.82630769 L35.806355,1.91315385 L56.6129239,1.91315385 C57.4142138,1.914 58.0644057,2.55580769 58.0644057,3.34780769 L58.0644057,40.6521923 Z M33.8711887,2.86973077 L26.1292394,2.86973077 L33.8711887,2.86973077 Z M56.6129239,0 L35.806355,0 L24.193645,0 L3.38707606,0 C1.5173998,0.00211538462 0.00214019718,1.49980769 0,3.34780769 L0,40.6521923 C0.00214019718,42.5001923 1.5173998,43.9978846 3.38707606,44 L56.6129239,44 C58.4826002,43.9978846 59.9978598,42.5001923 60,40.6521923 L60,3.34780769 C59.9978598,1.49980769 58.4826002,0.00211538462 56.6129239,0 L56.6129239,0 Z" id="Fill-5" fill="#544AE3" mask="url(#mask-2)"></path>
                        <path d="M29.2574498,32.4802831 L28.2859598,32.4802831 L28.2859598,28.6404246 C28.2859598,27.4714397 26.9831922,26.4837685 23.7868571,25.2311331 C22.5180336,24.7339005 21.2646784,24.3249893 20.5144699,24.0910225 L20.5144699,23.0651353 C22.3165171,22.0362757 23.427221,20.136516 23.4289397,18.0800708 L23.4289397,14.2397877 C23.425932,11.5901452 21.2530772,9.44240619 18.57149,9.43985846 L16.62851,9.43985846 C13.9473525,9.44240619 11.7744977,11.5901452 11.77149,14.2397877 L11.77149,18.0800708 C11.7732086,20.136516 12.8839125,22.0362757 14.6859598,23.0651353 L14.6859598,24.0910225 C13.9353216,24.3249893 12.6823961,24.7339005 11.4135726,25.2311331 C8.21723746,26.4837685 6.91446986,27.4714397 6.91446986,28.6404246 L6.91446986,32.4802831 L5.94297991,32.4802831 L5.94297991,7.51971692 L29.2574498,7.51971692 L29.2574498,32.4802831 Z M18.57149,23.8400708 L18.57149,24.8001415 C18.57149,25.3304947 18.1366612,25.7602123 17.6,25.7602123 C17.0637685,25.7602123 16.62851,25.3304947 16.62851,24.8001415 L16.62851,23.8400708 L18.57149,23.8400708 Z M13.7144699,15.3501747 L13.7144699,14.2397877 C13.7166182,12.6500022 15.0202452,11.3621231 16.62851,11.36 L18.57149,11.36 C20.1801845,11.3621231 21.4838114,12.6500022 21.4859598,14.2397877 L21.4859598,15.382446 C20.4766587,15.2469915 19.3913054,13.7238717 19.380134,13.7073115 C19.0815114,13.2657044 18.4773916,13.1472348 18.030532,13.4423472 C17.978112,13.4771662 17.9291293,13.5166561 17.8844433,13.5608168 C16.2168836,15.2096248 14.5948692,15.4002801 13.7144699,15.3501747 L13.7144699,15.3501747 Z M18.4503223,15.634247 C19.2177177,16.4609864 20.3017819,17.2507836 21.4859598,17.3132031 L21.4859598,18.0800708 C21.4859598,20.2010586 19.7462151,21.9199292 17.6,21.9199292 C15.4542146,21.9199292 13.7144699,20.2010586 13.7144699,18.0800708 L13.7144699,17.2677685 C14.8556805,17.3119292 16.6224946,17.0732916 18.4503223,15.634247 L18.4503223,15.634247 Z M26.3429799,32.4802831 L24.4,32.4802831 L24.4,31.5202123 C24.4,30.9898592 23.9651712,30.5601415 23.4289397,30.5601415 C22.8922785,30.5601415 22.4574498,30.9898592 22.4574498,31.5202123 L22.4574498,32.4802831 L12.7429799,32.4802831 L12.7429799,31.5202123 C12.7429799,30.9898592 12.3081511,30.5601415 11.77149,30.5601415 C11.2352584,30.5601415 10.8,30.9898592 10.8,31.5202123 L10.8,32.4802831 L8.85702009,32.4802831 L8.85702009,28.7504018 C8.99107797,28.5873468 9.65363326,27.9550844 12.4808796,26.8807903 C13.4059649,26.5292031 14.3091369,26.228146 14.9605207,26.0205057 C15.6424112,27.4612488 17.3769999,28.0833203 18.8348793,27.4094449 C19.453608,27.1232495 19.9507393,26.6319617 20.239909,26.0205057 C20.8874258,26.2268721 21.7858714,26.5266554 22.7088083,26.8773933 C25.5437887,27.9525367 26.2080627,28.5873468 26.3429799,28.7504018 L26.3429799,32.4802831 Z M30.2289397,5.6 L4.97148995,5.6 C4.43482876,5.6 4,6.02971766 4,6.56007077 L4,33.4403539 C4,33.9702823 4.43482876,34.4 4.97148995,34.4 L30.2289397,34.4 C30.7651712,34.4 31.2,33.9702823 31.2,33.4403539 L31.2,6.56007077 C31.2,6.02971766 30.7651712,5.6 30.2289397,5.6 L30.2289397,5.6 Z" id="Fill-6" fill="#544AE3" mask="url(#mask-2)"></path>
                        <path d="M34.7334759,12.4443483 L54.0669517,12.4443483 L54.0669517,7.55565166 L34.7334759,7.55565166 L34.7334759,12.4443483 Z M55.0336896,5.6 L33.7663104,5.6 C33.2327018,5.6 32.8,6.03809711 32.8,6.57782583 L32.8,13.4221742 C32.8,13.9623354 33.2327018,14.4 33.7663104,14.4 L55.0336896,14.4 C55.5672982,14.4 56,13.9623354 56,13.4221742 L56,6.57782583 C56,6.03809711 55.5672982,5.6 55.0336896,5.6 L55.0336896,5.6 Z" id="Fill-7" fill="#544AE3" mask="url(#mask-2)"></path>
                        <path d="M33.7500525,18.4 L47.0499475,18.4 C47.5747664,18.4 48,18.0419284 48,17.6 C48,17.1580716 47.5747664,16.8 47.0499475,16.8 L33.7500525,16.8 C33.2252336,16.8 32.8,17.1580716 32.8,17.6 C32.8,18.0419284 33.2252336,18.4 33.7500525,18.4" id="Fill-8" fill="#544AE3" mask="url(#mask-2)"></path>
                        <path d="M33.7455116,29.6 L52.6544884,29.6 C53.1767989,29.6 53.6,29.2418491 53.6,28.799823 C53.6,28.3581509 53.1767989,28 52.6544884,28 L33.7455116,28 C33.2232011,28 32.8,28.3581509 32.8,28.799823 C32.8,29.2418491 33.2232011,29.6 33.7455116,29.6" id="Fill-9" fill="#544AE3" mask="url(#mask-2)"></path>
                        <path d="M33.7778258,32 L40.6221742,32 C41.1623354,32 41.6,31.6419284 41.6,31.2 C41.6,30.7580716 41.1623354,30.4 40.6221742,30.4 L33.7778258,30.4 C33.2376646,30.4 32.8,30.7580716 32.8,31.2 C32.8,31.6419284 33.2376646,32 33.7778258,32" id="Fill-10" fill="#544AE3" mask="url(#mask-2)"></path>
                        <path d="M43.4668239,30.4 C42.8774993,30.4 42.4,30.7580716 42.4,31.2 C42.4,31.6419284 42.8774993,32 43.4668239,32 L44.5336479,32 C45.1225007,32 45.6,31.6419284 45.6,31.2 C45.6,30.7580716 45.1225007,30.4 44.5336479,30.4 L43.4668239,30.4 Z" id="Fill-11" fill="#544AE3" mask="url(#mask-2)"></path>
                        <path d="M5.93176105,38.08 L53.2678117,38.08 L53.2678117,37.12 L5.93176105,37.12 L5.93176105,38.08 Z M54.2339058,35.2 L4.96566688,35.2 C4.43241367,35.2 4,35.6301106 4,36.16 L4,39.04 C4,39.5698894 4.43241367,40 4.96566688,40 L54.2339058,40 C54.7675863,40 55.2,39.5698894 55.2,39.04 L55.2,36.16 C55.2,35.6301106 54.7675863,35.2 54.2339058,35.2 L54.2339058,35.2 Z" id="Fill-12" fill="#544AE3" mask="url(#mask-2)"></path>
                    </g>
                </g>
            </g>
        </g>
    </g>
</svg>