<?xml version="1.0" encoding="UTF-8"?>
<svg width="60px" height="46px" viewBox="0 0 60 46" version="1.1" xmlns="http://www.w3.org/2000/svg" xmlns:xlink="http://www.w3.org/1999/xlink">
    <title>Group</title>
    <defs>
        <polygon id="path-1" points="1.33928571e-05 0 30 0 30 32.3683671 1.33928571e-05 32.3683671"></polygon>
        <polygon id="path-3" points="1.33928571e-05 0 30 0 30 32.3683671 1.33928571e-05 32.3683671"></polygon>
    </defs>
    <g id="screen" stroke="none" stroke-width="1" fill="none" fill-rule="evenodd">
        <g id="4-1_new_step_0_notice_to_applicant" transform="translate(-348.000000, -311.000000)">
            <g id="Group-6" transform="translate(270.000000, 111.000000)">
                <g id="Group-5" transform="translate(74.000000, 200.000000)">
                    <g id="Group" transform="translate(4.000000, 0.000000)">
                        <g id="Group-10-Copy" transform="translate(37.500000, 22.500000) rotate(45.000000) translate(-37.500000, -22.500000) translate(22.105263, 6.315789)">
                            <polygon id="Fill-1" fill="#FFFFFF" points="1.68421053 30.7894737 29.3157895 30.7894737 29.3157895 0.789473684 1.68421053 0.789473684"></polygon>
                            <g id="Group-9" transform="translate(0.105263, 0.000000)">
                                <path d="M12.4178304,12.1435122 C13.4986339,11.8845648 14.7843482,11.281703 16.0714018,9.98561743 C16.0714018,9.98561743 17.1106875,11.5556207 18.4660446,12.1435122 C19.0566696,12.4011109 19.7062232,12.4713773 20.3571161,12.1435122 L20.3571161,9.98561743 C20.3571161,7.60208783 18.4383214,5.66982796 16.0714018,5.66982796 L13.9285446,5.66982796 C11.561625,5.66982796 9.64283036,7.60208783 9.64283036,9.98561743 L9.64283036,12.1435122 C9.64283036,12.1435122 10.7986339,12.5319332 12.4178304,12.1435122" id="Fill-2" fill="#7B73FF"></path>
                                <path d="M17.1428705,21.8540385 C17.1428705,23.0458707 16.1835402,24.0119332 15.0000134,24.0119332 C13.8164866,24.0119332 12.8571562,23.0458707 12.8571562,21.8540385 C12.8571562,21.8540385 4.28572768,24.3828214 4.28572768,26.169828 L4.28572768,31.0143016 L25.7142991,31.0143016 L25.7142991,26.169828 C25.7142991,24.3828214 17.1428705,21.8540385 17.1428705,21.8540385" id="Fill-4" fill="#7B73FF"></path>
                                <g id="Group-8">
                                    <mask id="mask-2" fill="white">
                                        <use xlink:href="#path-1"></use>
                                    </mask>
                                    <g id="Clip-7"></g>
                                    <path d="M27.8571562,30.2104724 L26.7857277,30.2104724 L26.7857277,25.8946829 C26.7857277,24.5811993 25.3486741,23.4710974 21.8236741,22.0632059 C20.4241205,21.5047158 19.0419777,21.0448145 18.2142991,20.7819559 L18.2142991,19.6286961 C20.2017991,18.4728737 21.4268437,16.3376368 21.4285848,14.0262618 L21.4285848,9.71047237 C21.4256384,6.73230789 19.0288527,4.31870263 16.071442,4.31573553 L13.9285848,4.31573553 C10.9711741,4.31870263 8.57425446,6.73230789 8.57144196,9.71047237 L8.57144196,14.0262618 C8.57318304,16.3376368 9.79809375,18.4728737 11.7857277,19.6286961 L11.7857277,20.7819559 C10.9580491,21.0448145 9.57590625,21.5047158 8.17635268,22.0632059 C4.65135268,23.4710974 3.21429911,24.5811993 3.21429911,25.8946829 L3.21429911,30.2104724 L2.14287054,30.2104724 L2.14287054,2.15784079 L27.8571562,2.15784079 L27.8571562,30.2104724 Z M16.071442,20.4999461 L16.071442,21.5788934 C16.071442,22.174877 15.5917098,22.6578408 15.0000134,22.6578408 C14.408317,22.6578408 13.9285848,22.174877 13.9285848,21.5788934 L13.9285848,20.4999461 L16.071442,20.4999461 Z M10.7142991,10.9580053 L10.7142991,9.71047237 C10.7167098,7.92387039 12.1542991,6.47605789 13.9285848,6.47363026 L16.071442,6.47363026 C17.8455937,6.47605789 19.283317,7.92387039 19.2857277,9.71047237 L19.2857277,10.9945546 C18.1726473,10.8420184 16.9754598,9.13053816 16.9634062,9.11179145 C16.633808,8.61547566 15.9673795,8.48236053 15.4745223,8.81413684 C15.4166652,8.85311382 15.362692,8.89762039 15.3134062,8.94711711 C13.474567,10.8003441 11.6852812,11.01465 10.7142991,10.9580053 L10.7142991,10.9580053 Z M15.9375134,11.2776434 C16.783942,12.2070217 17.9799241,13.0944559 19.2857277,13.1644526 L19.2857277,14.0262618 C19.2857277,16.4099263 17.366933,18.3420513 15.0000134,18.3420513 C12.6330937,18.3420513 10.7142991,16.4099263 10.7142991,14.0262618 L10.7142991,13.1132026 C11.9730937,13.1632388 13.9218884,12.8947158 15.9375134,11.2776434 L15.9375134,11.2776434 Z M24.6428705,30.2104724 L22.5000134,30.2104724 L22.5000134,29.131525 C22.5000134,28.5356763 22.0202812,28.0525776 21.4285848,28.0525776 C20.8368884,28.0525776 20.3571562,28.5356763 20.3571562,29.131525 L20.3571562,30.2104724 L9.64287054,30.2104724 L9.64287054,29.131525 C9.64287054,28.5356763 9.16313839,28.0525776 8.57144196,28.0525776 C7.97974554,28.0525776 7.50001339,28.5356763 7.50001339,29.131525 L7.50001339,30.2104724 L5.35715625,30.2104724 L5.35715625,26.0187618 C5.50447768,25.8354757 6.23572768,25.1245842 9.35358482,23.9176467 C10.3741205,23.5223474 11.3704152,23.1838276 12.0884062,22.9505053 C12.8404152,24.5698704 14.7535848,25.2686237 16.3616652,24.5113375 C17.0440312,24.1899461 17.5924687,23.6376599 17.9116205,22.9505053 C18.6254598,23.1826138 19.6165312,23.5197849 20.6343884,23.9136007 C23.7616205,25.1220217 24.4942098,25.8354757 24.6428705,26.0187618 L24.6428705,30.2104724 Z M28.9285848,-5.39473684e-05 L1.07144196,-5.39473684e-05 C0.479745536,-5.39473684e-05 1.33928571e-05,0.483044737 1.33928571e-05,1.07889342 L1.33928571e-05,31.2894197 C1.33928571e-05,31.8854033 0.479745536,32.3683671 1.07144196,32.3683671 L28.9285848,32.3683671 C29.5202812,32.3683671 30.0000134,31.8854033 30.0000134,31.2894197 L30.0000134,1.07889342 C30.0000134,0.483044737 29.5202812,-5.39473684e-05 28.9285848,-5.39473684e-05 L28.9285848,-5.39473684e-05 Z" id="Fill-6" fill="#544AE3" mask="url(#mask-2)"></path>
                                </g>
                            </g>
                        </g>
                        <g id="Group-10" transform="translate(0.000000, 7.275575)">
                            <polygon id="Fill-1" fill="#FFFFFF" points="1.68421053 30.7894737 29.3157895 30.7894737 29.3157895 0.789473684 1.68421053 0.789473684"></polygon>
                            <g id="Group-9" transform="translate(0.105263, 0.000000)">
                                <path d="M12.4178304,12.1435122 C13.4986339,11.8845648 14.7843482,11.281703 16.0714018,9.98561743 C16.0714018,9.98561743 17.1106875,11.5556207 18.4660446,12.1435122 C19.0566696,12.4011109 19.7062232,12.4713773 20.3571161,12.1435122 L20.3571161,9.98561743 C20.3571161,7.60208783 18.4383214,5.66982796 16.0714018,5.66982796 L13.9285446,5.66982796 C11.561625,5.66982796 9.64283036,7.60208783 9.64283036,9.98561743 L9.64283036,12.1435122 C9.64283036,12.1435122 10.7986339,12.5319332 12.4178304,12.1435122" id="Fill-2" fill="#7B73FF"></path>
                                <path d="M17.1428705,21.8540385 C17.1428705,23.0458707 16.1835402,24.0119332 15.0000134,24.0119332 C13.8164866,24.0119332 12.8571562,23.0458707 12.8571562,21.8540385 C12.8571562,21.8540385 4.28572768,24.3828214 4.28572768,26.169828 L4.28572768,31.0143016 L25.7142991,31.0143016 L25.7142991,26.169828 C25.7142991,24.3828214 17.1428705,21.8540385 17.1428705,21.8540385" id="Fill-4" fill="#7B73FF"></path>
                                <g id="Group-8">
                                    <mask id="mask-4" fill="white">
                                        <use xlink:href="#path-3"></use>
                                    </mask>
                                    <g id="Clip-7"></g>
                                    <path d="M27.8571562,30.2104724 L26.7857277,30.2104724 L26.7857277,25.8946829 C26.7857277,24.5811993 25.3486741,23.4710974 21.8236741,22.0632059 C20.4241205,21.5047158 19.0419777,21.0448145 18.2142991,20.7819559 L18.2142991,19.6286961 C20.2017991,18.4728737 21.4268437,16.3376368 21.4285848,14.0262618 L21.4285848,9.71047237 C21.4256384,6.73230789 19.0288527,4.31870263 16.071442,4.31573553 L13.9285848,4.31573553 C10.9711741,4.31870263 8.57425446,6.73230789 8.57144196,9.71047237 L8.57144196,14.0262618 C8.57318304,16.3376368 9.79809375,18.4728737 11.7857277,19.6286961 L11.7857277,20.7819559 C10.9580491,21.0448145 9.57590625,21.5047158 8.17635268,22.0632059 C4.65135268,23.4710974 3.21429911,24.5811993 3.21429911,25.8946829 L3.21429911,30.2104724 L2.14287054,30.2104724 L2.14287054,2.15784079 L27.8571562,2.15784079 L27.8571562,30.2104724 Z M16.071442,20.4999461 L16.071442,21.5788934 C16.071442,22.174877 15.5917098,22.6578408 15.0000134,22.6578408 C14.408317,22.6578408 13.9285848,22.174877 13.9285848,21.5788934 L13.9285848,20.4999461 L16.071442,20.4999461 Z M10.7142991,10.9580053 L10.7142991,9.71047237 C10.7167098,7.92387039 12.1542991,6.47605789 13.9285848,6.47363026 L16.071442,6.47363026 C17.8455937,6.47605789 19.283317,7.92387039 19.2857277,9.71047237 L19.2857277,10.9945546 C18.1726473,10.8420184 16.9754598,9.13053816 16.9634062,9.11179145 C16.633808,8.61547566 15.9673795,8.48236053 15.4745223,8.81413684 C15.4166652,8.85311382 15.362692,8.89762039 15.3134062,8.94711711 C13.474567,10.8003441 11.6852812,11.01465 10.7142991,10.9580053 L10.7142991,10.9580053 Z M15.9375134,11.2776434 C16.783942,12.2070217 17.9799241,13.0944559 19.2857277,13.1644526 L19.2857277,14.0262618 C19.2857277,16.4099263 17.366933,18.3420513 15.0000134,18.3420513 C12.6330937,18.3420513 10.7142991,16.4099263 10.7142991,14.0262618 L10.7142991,13.1132026 C11.9730937,13.1632388 13.9218884,12.8947158 15.9375134,11.2776434 L15.9375134,11.2776434 Z M24.6428705,30.2104724 L22.5000134,30.2104724 L22.5000134,29.131525 C22.5000134,28.5356763 22.0202812,28.0525776 21.4285848,28.0525776 C20.8368884,28.0525776 20.3571562,28.5356763 20.3571562,29.131525 L20.3571562,30.2104724 L9.64287054,30.2104724 L9.64287054,29.131525 C9.64287054,28.5356763 9.16313839,28.0525776 8.57144196,28.0525776 C7.97974554,28.0525776 7.50001339,28.5356763 7.50001339,29.131525 L7.50001339,30.2104724 L5.35715625,30.2104724 L5.35715625,26.0187618 C5.50447768,25.8354757 6.23572768,25.1245842 9.35358482,23.9176467 C10.3741205,23.5223474 11.3704152,23.1838276 12.0884062,22.9505053 C12.8404152,24.5698704 14.7535848,25.2686237 16.3616652,24.5113375 C17.0440312,24.1899461 17.5924687,23.6376599 17.9116205,22.9505053 C18.6254598,23.1826138 19.6165312,23.5197849 20.6343884,23.9136007 C23.7616205,25.1220217 24.4942098,25.8354757 24.6428705,26.0187618 L24.6428705,30.2104724 Z M28.9285848,-5.39473684e-05 L1.07144196,-5.39473684e-05 C0.479745536,-5.39473684e-05 1.33928571e-05,0.483044737 1.33928571e-05,1.07889342 L1.33928571e-05,31.2894197 C1.33928571e-05,31.8854033 0.479745536,32.3683671 1.07144196,32.3683671 L28.9285848,32.3683671 C29.5202812,32.3683671 30.0000134,31.8854033 30.0000134,31.2894197 L30.0000134,1.07889342 C30.0000134,0.483044737 29.5202812,-5.39473684e-05 28.9285848,-5.39473684e-05 L28.9285848,-5.39473684e-05 Z" id="Fill-6" fill="#544AE3" mask="url(#mask-4)"></path>
                                </g>
                            </g>
                        </g>
                    </g>
                </g>
            </g>
        </g>
    </g>
</svg>