<?xml version="1.0" encoding="UTF-8"?>
<svg width="39px" height="60px" viewBox="0 0 39 60" version="1.1" xmlns="http://www.w3.org/2000/svg" xmlns:xlink="http://www.w3.org/1999/xlink">
    <title>Group 20</title>
    <defs>
        <polygon id="path-1" points="0.000152941176 0.338379649 38.5615966 0.338379649 38.5615966 58.8823529 0.000152941176 58.8823529"></polygon>
    </defs>
    <g id="screen" stroke="none" stroke-width="1" fill="none" fill-rule="evenodd">
        <g id="4-1_new_step_0_notice_to_applicant" transform="translate(-355.000000, -463.000000)">
            <g id="Group-6" transform="translate(270.000000, 111.000000)">
                <g id="Group-5" transform="translate(74.000000, 200.000000)">
                    <g id="Group-20" transform="translate(11.000000, 152.000000)">
                        <g id="Group-3" transform="translate(0.000000, 0.426476)">
                            <mask id="mask-2" fill="white">
                                <use xlink:href="#path-1"></use>
                            </mask>
                            <g id="Clip-2"></g>
                            <path d="M34.3855353,10.6573235 C32.3323,8.60179412 30.2844176,6.55085294 28.2518294,4.51597059 L28.2518294,10.6573235 L34.3855353,10.6573235 Z M20.6973,45.4659706 L20.6973,55.6503235 C21.3511235,55.2488529 21.9437706,54.8947941 22.5272412,54.5239118 C24.6714765,53.1612059 24.2776529,53.1680882 26.5243588,54.5782059 C27.0634765,54.9162059 27.6125353,55.2381471 28.2893,55.6480294 L28.2893,54.7846765 L28.2893,50.6070882 C28.2893,49.0631471 28.2763,47.5176765 28.2977118,45.9737353 C28.3045941,45.5225588 28.1485941,45.2717353 27.7088882,45.3902647 C27.2852412,45.5042059 26.8485941,45.6693824 26.4960647,45.9217353 C25.7114765,46.4822647 24.9062412,46.9984412 23.9167118,46.6841471 C23.3561824,46.5059706 22.8277706,46.1595588 22.3536529,45.7978529 C21.8397706,45.4055588 21.3297118,45.2725 20.6973,45.4659706 L20.6973,45.4659706 Z M24.5292412,44.5315 C25.6487706,43.4915 26.9105353,42.8529706 28.4896529,43.0808529 C28.6020647,43.0976765 28.8444765,42.8422647 28.8773588,42.6824412 C29.1427118,41.3862647 29.8294176,40.4181471 31.0101235,39.8086765 C31.3060647,39.6565 31.4062412,39.4530882 31.2525353,39.1235 C30.6774765,37.8885 30.7011824,36.6550294 31.2204176,35.3963235 C31.2999471,35.2059118 31.1493,34.7432647 30.9772412,34.6553235 C29.8271235,34.0642059 29.1687118,33.1343235 28.9140647,31.8977941 C28.8253588,31.4695588 28.6173588,31.3311471 28.1860647,31.3823824 C27.0030647,31.5207941 25.9439471,31.2057353 25.0729471,30.3806176 C24.6645941,29.9929118 24.3204765,29.9722647 23.9067706,30.3637941 C23.0327118,31.1873824 21.9743588,31.5169706 20.7921235,31.3808529 C20.3195353,31.3257941 20.1199471,31.4902059 20.0304765,31.9329706 C19.7865353,33.1289706 19.1495353,34.0420294 18.0453,34.6056176 C17.6476529,34.8090294 17.5635353,35.1011471 17.7585353,35.5209706 C18.2907706,36.6703235 18.2831235,37.8342059 17.7593,38.9858529 C17.5696529,39.4018529 17.6445941,39.6565 18.0674765,39.8767353 C19.1533588,40.4426176 19.8224765,41.3380882 20.0190059,42.5585588 C20.0931824,43.0189118 20.3455353,43.1557941 20.7860059,43.0976765 C21.9812412,42.9386176 23.0074765,43.3140882 23.9006529,44.1078529 C24.0757706,44.2623235 24.2898882,44.3724412 24.5292412,44.5315 L24.5292412,44.5315 Z M18.3748882,49.2527941 C18.1982412,47.2079706 18.7159471,45.1883824 17.8717118,43.2299706 C17.6040647,42.6067353 17.3402412,42.1127353 16.7430059,41.7365 C15.3305941,40.8463824 15.0086529,39.8048529 15.6020647,38.2173235 C15.8429471,37.5749706 15.8857706,36.9838529 15.6425941,36.3285 C14.9971824,34.5865 15.3122412,33.6520294 16.8974765,32.6357353 C17.3907118,32.3183824 17.6629471,31.9329706 17.8120647,31.3716765 C18.2861824,29.5883824 19.0157118,29.0462059 20.8418294,29.1073824 C21.4818882,29.1287941 22.0011235,28.9835 22.5127118,28.5636765 C23.9128882,27.4166176 25.0071824,27.3975 26.4280059,28.5453235 C26.9877706,28.9980294 27.5406529,29.1303235 28.2181824,29.1058529 C29.9380059,29.0423824 30.6897118,29.6350294 31.1324765,31.3403235 C31.2785353,31.9023824 31.5400647,32.3283235 32.0845353,32.6502647 C33.6147118,33.5518529 33.9710647,34.6293235 33.3424765,36.2902647 C33.1161235,36.8882647 33.0809471,37.4335 33.2996529,38.0483235 C33.9725941,39.9455588 33.6659471,40.7783235 32.0019471,41.9131471 C31.7442412,42.0897941 31.4391235,42.3215 31.3465941,42.5937353 C30.9535353,43.7461471 30.4006529,44.8557353 30.5612412,46.1557353 C30.6675353,47.0137353 30.5780647,47.8946765 30.5834176,48.7664412 C30.5841824,48.9300882 30.6178294,49.0929706 30.6338882,49.2336765 L36.2223588,49.2336765 L36.2223588,13.0049706 L35.4844176,13.0049706 C32.8721824,13.0049706 30.2591824,13.0057353 27.6461824,13.0049706 C26.2880647,13.0042059 25.8965353,12.6149706 25.8957706,11.2599118 C25.8942412,8.64614706 25.8950059,6.03314706 25.8950059,3.41938235 L25.8950059,2.68832353 L2.33824118,2.68832353 L2.33824118,49.2527941 L18.3748882,49.2527941 Z M30.5811235,51.5820882 C30.5811235,53.6139118 30.5742412,55.5700294 30.5849471,57.5261471 C30.5887706,58.1264412 30.4350647,58.6625 29.8118294,58.7947941 C29.4516529,58.8712647 28.9767706,58.7894412 28.6563588,58.6028529 C27.4060647,57.8733235 26.1863588,57.0887353 24.9788882,56.2888529 C24.6164176,56.0487353 24.3678882,56.0387941 23.9993,56.2850294 C22.8407706,57.0558529 21.6547118,57.7830882 20.4732412,58.5179706 C19.2474176,59.2803824 18.3825353,58.8215588 18.3641824,57.3800882 C18.3420059,55.7023235 18.3588294,54.0253235 18.3580647,52.3483235 L18.3580647,51.5820882 L17.5161235,51.5820882 L1.6393,51.5820882 C0.386711765,51.5820882 0.0013,51.2035588 0.0013,49.9563235 C0.000152941176,33.9678529 0.000152941176,17.9801471 0.0013,1.99244118 C0.0013,0.720735294 0.375241176,0.346794118 1.62706471,0.346794118 C9.99065294,0.346029412 18.3534765,0.349852941 26.7163,0.338379649 C27.2791235,0.337617647 27.7050647,0.498970588 28.1050059,0.901205882 C31.3901824,4.20855882 34.6868294,7.50367647 37.9911235,10.7903824 C38.3895353,11.1872647 38.5623588,11.6086176 38.5615966,12.1760294 C38.5493588,24.7653824 38.5524176,37.3555 38.5524176,49.9456176 C38.5524176,51.2326176 38.2098294,51.5813235 36.9457706,51.5820882 C34.8565941,51.5828529 32.7674176,51.5820882 30.5811235,51.5820882 L30.5811235,51.5820882 Z" id="Fill-1" fill="#544AE3" mask="url(#mask-2)"></path>
                        </g>
                        <path d="M33.0816353,23.7992529 C33.0877529,23.2035471 32.5624,22.6812529 31.9605765,22.682779 C31.3365765,22.6843118 30.8486941,23.1630176 30.8303412,23.7908412 C30.8119882,24.4278412 31.3350471,24.9562529 31.9751059,24.9455471 C32.5708118,24.9348412 33.0755176,24.4125471 33.0816353,23.7992529 M14.1184588,11.1189 C11.7884,11.1189 9.45757647,11.1166059 7.12828235,11.1227235 C6.89275294,11.1234882 6.65110588,11.1464294 6.42475294,11.2053118 C5.88945882,11.3452529 5.64551765,11.7436647 5.62945882,12.2644294 C5.61187059,12.8058412 5.89787059,13.1843706 6.41787059,13.3243118 C6.72757647,13.4076647 7.06251765,13.4275471 7.38522353,13.4275471 C11.8931647,13.4336647 16.4011059,13.4336647 20.9090471,13.4267824 C21.2302235,13.4267824 21.6255765,13.4581353 21.8542235,13.2921941 C22.1708118,13.0635471 22.5355765,12.6720176 22.5569882,12.3301941 C22.5791647,11.9921941 22.2641059,11.5547824 21.9750471,11.2993706 C21.7701059,11.1196647 21.3617529,11.1280765 21.0436353,11.1265471 C18.7349882,11.1127824 16.4271059,11.1189 14.1184588,11.1189 M17.0449882,24.9547235 C20.3294,24.9547235 23.6138118,24.9547235 26.8982235,24.9531941 C27.1154,24.9531941 27.3402235,24.9715471 27.5489882,24.9241353 C28.0812235,24.7994882 28.4352824,24.4844294 28.4987529,23.9086059 C28.5568706,23.3832529 28.2968706,22.9993706 27.8617529,22.8036059 C27.5604588,22.6690176 27.1849882,22.6682529 26.8424,22.6682529 C20.3171647,22.6606059 13.7911647,22.6621353 7.26592941,22.6659588 C6.98528235,22.6667235 6.69392941,22.6743706 6.42704706,22.7470176 C5.74187059,22.9336059 5.4444,23.6623706 5.75181176,24.3070176 C6.01945882,24.8729 6.51345882,24.9562529 7.06175294,24.9554882 C10.3889882,24.9531941 13.7169882,24.9547235 17.0449882,24.9547235 M19.3414,19.1827235 C23.3912824,19.1827235 27.4404,19.1842529 31.4902824,19.1781353 C31.7678706,19.1781353 32.0531059,19.1483118 32.3230471,19.0833118 C32.8430471,18.9571353 33.0678706,18.5602529 33.0725639,18.0647235 C33.0778118,17.5768412 32.8789882,17.1600765 32.3742824,17.0056059 C32.0875176,16.9184294 31.7762824,16.8748412 31.4757529,16.8748412 C23.3775176,16.8687235 15.2785176,16.8687235 7.18028235,16.8740765 C6.90269412,16.8748412 6.54863529,16.8557235 6.36434118,17.0079 C6.05998824,17.2610176 5.69063529,17.6372529 5.67151765,17.9798412 C5.65316471,18.3186059 5.96516471,18.7644294 6.26187059,19.0037824 C6.49204706,19.1903706 6.91875294,19.1750765 7.25904706,19.1758412 C11.2867529,19.1857824 15.3144588,19.1827235 19.3414,19.1827235 M18.3755765,49.6791941 L2.33816471,49.6791941 L2.33816471,3.11472353 L25.8956941,3.11472353 L25.8956941,3.84578235 C25.8956941,6.45954706 25.8941647,9.07254706 25.8964588,11.6863118 C25.8964588,13.0413706 26.2879882,13.4306059 27.6461059,13.4313706 C30.2591059,13.4321353 32.8721059,13.4313706 35.4851059,13.4313706 L36.2222824,13.4313706 L36.2222824,49.6600765 L30.6338118,49.6600765 C30.6177529,49.5193706 30.5841059,49.3564882 30.5833412,49.1928412 C30.5787529,48.3210765 30.6674588,47.4401353 30.5611647,46.5821353 C30.4005765,45.2821353 30.9534588,44.1725471 31.3465176,43.0201353 C31.4398118,42.7479 31.7441647,42.5161941 32.0018706,42.3395471 C33.6658706,41.2047235 33.9725176,40.3719588 33.2995765,38.4747235 C33.0808706,37.8599 33.1160471,37.3146647 33.3424,36.7166647 C33.9709882,35.0557235 33.6146353,33.9790176 32.0844588,33.0766647 C31.5399882,32.7547235 31.2784588,32.3287824 31.1324,31.7667235 C30.6896353,30.0614294 29.9379294,29.4687824 28.2181059,29.5322529 C27.5405765,29.5567235 26.9876941,29.4244294 26.4279294,28.9717235 C25.0071059,27.8239 23.9128118,27.8430176 22.5126353,28.9900765 C22.0010471,29.4099 21.4818118,29.5551941 20.8417529,29.5337824 C19.0156353,29.4726059 18.2861059,30.0147824 17.8119882,31.7980765 C17.6628706,32.3593706 17.3906353,32.7447824 16.8974,33.0621353 C15.3121647,34.0784294 14.9978706,35.0129 15.6425176,36.7549 C15.8856941,37.4102529 15.8428706,38.0013706 15.6027529,38.6437235 C15.0085765,40.2312529 15.3305176,41.2727824 16.7429294,42.1629 C17.3401647,42.5391353 17.6039882,43.0331353 17.8716353,43.6563706 C18.7158706,45.6147824 18.1981647,47.6343706 18.3755765,49.6791941" id="Fill-4" fill="#FFFFFF"></path>
                        <path d="M24.5294706,44.9579 C24.2901176,44.7988412 24.0752353,44.6887235 23.9008824,44.5342529 C23.0077059,43.7404882 21.9814706,43.3650176 20.7854706,43.5240765 C20.345,43.5821941 20.0926471,43.4453118 20.0192353,42.9849588 C19.8227059,41.7644882 19.1535882,40.8690176 18.0677059,40.3031353 C17.6448235,40.0829 17.5691176,39.8282529 17.7587647,39.4122529 C18.2833529,38.2606059 18.291,37.0967235 17.758,35.9473706 C17.5637647,35.5275471 17.6478824,35.2354294 18.0447647,35.0327824 C19.1497647,34.4684294 19.7867647,33.5553706 20.0299412,32.3593706 C20.1194118,31.9166059 20.3197647,31.7521941 20.7915882,31.8072529 C21.9745882,31.9433706 23.0329412,31.6137824 23.907,30.7901941 C24.3207059,30.3986647 24.6648235,30.4193118 25.0731765,30.8070176 C25.9441765,31.6321353 27.0025294,31.9471941 28.1855294,31.8087824 C28.6175882,31.7575471 28.8255882,31.8959588 28.9135294,32.3241941 C29.1681765,33.5607235 29.8273529,34.4906059 30.9774706,35.0817235 C31.1487647,35.1696647 31.3001765,35.6323118 31.2206471,35.8227235 C30.7006471,37.0814294 30.6777059,38.3149 31.2527647,39.5499 C31.4057059,39.8794882 31.3055294,40.0829 31.0103529,40.2350765 C29.8296471,40.8445471 29.1421765,41.8126647 28.8775882,43.1088412 C28.8447059,43.2686647 28.6015294,43.5240765 28.4898824,43.5080176 C26.91,43.2793706 25.649,43.9179 24.5294706,44.9579" id="Fill-6" fill="#7B73FF"></path>
                        <path d="M20.6969176,45.8920647 C21.3293294,45.6985941 21.8393882,45.8324176 22.3532706,46.2247118 C22.8273882,46.5856529 23.3565647,46.9320647 23.9163294,47.1110059 C24.9066235,47.4253 25.7118588,46.9083588 26.4956824,46.3485941 C26.8482118,46.0962412 27.2848588,45.9310647 27.7085059,45.8163588 C28.1482118,45.6978294 28.3042118,45.9486529 28.2973294,46.3998294 C28.2759176,47.9445353 28.2896824,49.4892412 28.2896824,51.0339471 L28.2896824,55.2115353 L28.2896824,56.0741235 C27.6121529,55.6642412 27.0630941,55.3423 26.5239765,55.0043 C24.2780353,53.5941824 24.6710941,53.5873 22.5276235,54.9507706 C21.9441529,55.3208882 21.3507412,55.6749471 20.6969176,56.0764176 L20.6969176,45.8920647 Z" id="Fill-8" fill="#7B73FF"></path>
                        <path d="M34.3855353,11.0838 L28.2518294,11.0838 L28.2518294,4.94244706 C30.2844176,6.97732941 32.3323,9.02827059 34.3855353,11.0838" id="Fill-10" fill="#FFFFFF"></path>
                        <path d="M19.3415529,19.1826471 C15.3138471,19.1826471 11.2869059,19.1857059 7.2592,19.1757647 C6.91890588,19.175 6.49143529,19.1902941 6.26202353,19.0044706 C5.96531765,18.7643529 5.65331765,18.3185294 5.67167059,17.9797647 C5.69002353,17.6371765 6.06014118,17.2609412 6.36449412,17.0078235 C6.54878824,16.8556471 6.90208235,16.8747647 7.18043529,16.874 C15.2786706,16.8686471 23.3769059,16.8686471 31.4759059,16.8747647 C31.7764353,16.8747647 32.0876706,16.9183529 32.3744353,17.0055294 C32.8791412,17.16 33.0779647,17.5767647 33.0727168,18.0646471 C33.0680235,18.5609412 32.8432,18.9570588 32.3232,19.0832353 C32.0532588,19.1482353 31.7680235,19.1780588 31.4904353,19.1780588 C27.4405529,19.1841765 23.3914353,19.1826471 19.3415529,19.1826471" id="Fill-12" fill="#544AE3"></path>
                        <path d="M17.0452176,24.9545706 C13.7164529,24.9545706 10.3892176,24.9530412 7.06121765,24.9553353 C6.51368824,24.9561 6.01968824,24.8735118 5.75127647,24.3068647 C5.44462941,23.6629824 5.7421,22.9334529 6.42651176,22.7468647 C6.69415882,22.6749824 6.98551176,22.6665706 7.26615882,22.6658059 C13.7913941,22.6619824 20.3166294,22.6604529 26.8426294,22.6681 C27.1852176,22.6681 27.5606882,22.6696294 27.8619824,22.8034529 C28.2971,22.9992176 28.5571,23.3831 28.4989824,23.9084529 C28.4355118,24.4850412 28.0814529,24.7993353 27.5484529,24.9239824 C27.3404529,24.9713941 27.1156294,24.9530412 26.8984529,24.9530412 C23.6140412,24.9545706 20.3296294,24.9545706 17.0452176,24.9545706" id="Fill-14" fill="#544AE3"></path>
                        <path d="M14.1185353,11.1189 C16.4271824,11.1189 18.7350647,11.1127824 21.0437118,11.1265471 C21.3618294,11.1280765 21.7701824,11.1196647 21.9743588,11.2993706 C22.2641824,11.5547824 22.5784765,11.9921941 22.5570647,12.3301941 C22.5356529,12.6720176 22.1708882,13.0635471 21.8543,13.2921941 C21.6248882,13.4581353 21.2303,13.4267824 20.9091235,13.4267824 C16.4011824,13.4336647 11.8932412,13.4336647 7.3853,13.4275471 C7.06182941,13.4275471 6.72765294,13.4076647 6.41794706,13.3243118 C5.89794706,13.1843706 5.61194706,12.8058412 5.62877059,12.2644294 C5.64559412,11.7436647 5.88953529,11.3452529 6.42406471,11.2053118 C6.65041765,11.1464294 6.89282941,11.1234882 7.12759412,11.1227235 C9.45765294,11.1166059 11.7884765,11.1189 14.1185353,11.1189" id="Fill-16" fill="#544AE3"></path>
                        <path d="M33.0816353,23.7992529 C33.0755176,24.4125471 32.5708118,24.9348412 31.9751059,24.9455471 C31.3350471,24.9562529 30.8119882,24.4278412 30.8303412,23.7908412 C30.8486941,23.1630176 31.3365765,22.6843118 31.9605765,22.682779 C32.5624,22.6812529 33.0877529,23.2035471 33.0816353,23.7992529" id="Fill-18" fill="#544AE3"></path>
                    </g>
                </g>
            </g>
        </g>
    </g>
</svg>