<?xml version="1.0" encoding="UTF-8"?>
<svg width="91px" height="92px" viewBox="0 0 91 92" version="1.1" xmlns="http://www.w3.org/2000/svg" xmlns:xlink="http://www.w3.org/1999/xlink">
    <title>Group 44 Copy</title>
    <defs>
        <polygon id="path-1" points="0 0.081450484 89.2500011 0.081450484 89.2500011 80.499589 0 80.499589"></polygon>
        <polygon id="path-3" points="0 0.081450484 89.2500011 0.081450484 89.2500011 80.499589 0 80.499589"></polygon>
        <polygon id="path-5" points="0 0.0613846154 89.2500011 0.0613846154 89.2500011 13.0285077 0 13.0285077"></polygon>
    </defs>
    <g id="screen" stroke="none" stroke-width="1" fill="none" fill-rule="evenodd">
        <g id="1-1_Landing_page_home_new" transform="translate(-1005.000000, -435.000000)">
            <g id="Group-44-Copy" transform="translate(1005.000000, 435.000000)">
                <g id="Group-3" transform="translate(0.322486, 10.150000)">
                    <mask id="mask-2" fill="white">
                        <use xlink:href="#path-1"></use>
                    </mask>
                    <g id="Clip-2"></g>
                    <path d="M89.2500011,0.081450484 L89.2500011,74.3137364 C89.2500011,77.730341 86.4945667,80.499589 83.0939824,80.499589 L6.15550742,80.499589 C2.75492314,80.499589 -0.000511212308,77.730341 -0.000511212308,74.3137364 L-0.000511212308,0.081450484 L89.2500011,0.081450484 Z" id="Fill-1" fill="#ECF0F1" mask="url(#mask-2)"></path>
                </g>
                <g id="Group-6" transform="translate(0.322486, 10.150000)">
                    <mask id="mask-4" fill="white">
                        <use xlink:href="#path-3"></use>
                    </mask>
                    <g id="Clip-5"></g>
                    <path d="M89.2500011,0.081450484 L89.2500011,74.3137364 C89.2500011,77.730341 86.4945667,80.499589 83.0939824,80.499589 L6.15550742,80.499589 C2.75492314,80.499589 -0.000511212308,77.730341 -0.000511212308,74.3137364 L-0.000511212308,0.081450484 L89.2500011,0.081450484 Z" id="Fill-4" fill="#ECECEC" mask="url(#mask-4)"></path>
                </g>
                <g id="Group-9" transform="translate(0.322486, 0.350000)">
                    <mask id="mask-6" fill="white">
                        <use xlink:href="#path-5"></use>
                    </mask>
                    <g id="Clip-8"></g>
                    <path d="M89.2500011,6.54543077 L89.2500011,13.0285077 L-0.000511212308,13.0285077 L-0.000511212308,6.54543077 C-0.000511212308,2.96466154 2.75492314,0.0612769231 6.15550742,0.0612769231 L83.0939824,0.0612769231 C86.4945667,0.0612769231 89.2500011,2.96466154 89.2500011,6.54543077" id="Fill-7" fill="#9791EE" mask="url(#mask-6)"></path>
                </g>
                <path d="M5.9474859,8.05 C5.17101165,8.05 4.5412359,7.42302326 4.5412359,6.65 C4.5412359,5.87697674 5.17101165,5.25 5.9474859,5.25 C6.72396015,5.25 7.3537359,5.87697674 7.3537359,6.65 C7.3537359,7.42302326 6.72396015,8.05 5.9474859,8.05" id="Fill-10" fill="#FFFFFF"></path>
                <path d="M12.2760779,8.05 C11.4989275,8.05 10.8693609,7.42302326 10.8693609,6.65 C10.8693609,5.87697674 11.4989275,5.25 12.2760779,5.25 C13.0522943,5.25 13.6818609,5.87697674 13.6818609,6.65 C13.6818609,7.42302326 13.0522943,8.05 12.2760779,8.05" id="Fill-12" fill="#FFFFFF"></path>
                <path d="M18.6037359,8.05 C17.8272616,8.05 17.1974859,7.42302326 17.1974859,6.65 C17.1974859,5.87697674 17.8272616,5.25 18.6037359,5.25 C19.3802102,5.25 20.0099859,5.87697674 20.0099859,6.65 C20.0099859,7.42302326 19.3802102,8.05 18.6037359,8.05" id="Fill-14" fill="#FFFFFF"></path>
                <line x1="70.6349859" y1="7.35" x2="73.4474859" y2="7.35" id="Fill-16" fill="#BDC3C7"></line>
                <path d="M8.90057664,21.35 L52.214173,21.35 C53.0682757,21.35 53.7599859,22.0292248 53.7599859,22.8666667 L53.7599859,28.9333333 C53.7599859,29.7707752 53.0682757,30.45 52.214173,30.45 L8.90057664,30.45 C8.04647388,30.45 7.3537359,29.7707752 7.3537359,28.9333333 L7.3537359,22.8666667 C7.3537359,22.0292248 8.04647388,21.35 8.90057664,21.35" id="Fill-18" fill="#4E45D1"></path>
                <path d="M49.4157506,44.45 L9.58859624,44.45 C8.74283407,44.45 8.0568609,43.8230233 8.0568609,43.05 C8.0568609,42.2769767 8.74283407,41.65 9.58859624,41.65 L49.4157506,41.65 C50.2615127,41.65 50.9474859,42.2769767 50.9474859,43.05 C50.9474859,43.8230233 50.2615127,44.45 49.4157506,44.45" id="Fill-20" fill="#4E45D1"></path>
                <path d="M45.8894492,50.05 L8.89512347,50.05 C8.04403173,50.05 7.3537359,49.4230233 7.3537359,48.65 C7.3537359,47.8769767 8.04403173,47.25 8.89512347,47.25 L45.8894492,47.25 C46.7415651,47.25 47.4318609,47.8769767 47.4318609,48.65 C47.4318609,49.4230233 46.7415651,50.05 45.8894492,50.05" id="Fill-22" fill="#4E45D1"></path>
                <path d="M43.0666695,56.35 L8.90642729,56.35 C8.04909404,56.35 7.3537359,55.7230233 7.3537359,54.95 C7.3537359,54.1769767 8.04909404,53.55 8.90642729,53.55 L43.0666695,53.55 C43.9240028,53.55 44.6193609,54.1769767 44.6193609,54.95 C44.6193609,55.7230233 43.9240028,56.35 43.0666695,56.35" id="Fill-24" fill="#4E45D1"></path>
                <path d="M49.0822318,62.65 L8.89177926,62.65 C8.04253406,62.65 7.3537359,63.3441199 7.3537359,64.1999264 L7.3537359,82.8000736 C7.3537359,83.6558801 8.04253406,84.35 8.89177926,84.35 L79.6438175,84.35 C80.4930627,84.35 81.1818609,83.6558801 81.1818609,82.8000736 L81.1818609,64.1999264 C81.1818609,63.3441199 80.4930627,62.65 79.6438175,62.65 L63.0022906,62.65" id="Fill-26" fill="#6A62D8"></path>
                <path d="M59.3849859,70.3642022 L49.9074054,78.3950347 C49.438624,78.7909911 48.7749335,78.8628018 48.2311871,78.5745615 C47.6884402,78.2873186 47.3745865,77.6988697 47.4405558,77.0894759 L48.7489456,64.75 C54.8211141,65.7693133 54.7061677,65.4850625 59.3849859,70.3642022" id="Fill-28" fill="#FFFFFF"></path>
                <path d="M70.6349859,35.4516143 L54.4445208,65.45 C52.671369,64.5364529 51.4376902,64.4667321 48.1349859,63.9222949 L65.0813406,32.55 L70.6349859,35.4516143 Z" id="Fill-30" fill="#413E56"></path>
                <path d="M75.5568609,38.9400859 L59.1341596,70.35 C57.8269556,68.6749004 56.2469525,67.2370467 54.4631109,66.0980612 L70.1688275,36.05 L75.5568609,38.9400859 Z" id="Fill-32" fill="#33304A"></path>
                <path d="M82.0299843,28.6034114 L79.7979703,32.55 L68.5256109,26.9794515 L70.7576249,23.0328629 C71.3508512,21.9828803 72.3667513,21.1971252 73.5807466,20.8477908 C74.7947419,20.4984563 76.1083145,20.615231 77.2312071,21.1713952 L80.0363202,22.5568576 C81.1613315,23.1100529 82.0024417,24.0590947 82.3763861,25.1941843 C82.7503306,26.3282842 82.6253293,27.5544184 82.0299843,28.6034114" id="Fill-34" fill="#9791EE"></path>
                <path d="M78.3693609,33.4038377 L75.4126301,38.85 C68.7477054,35.3960619 71.2989178,36.7228484 64.3068609,33.0808296 L67.2479144,27.65 L78.3693609,33.4038377 Z" id="Fill-36" fill="#BDC3C7"></path>
                <path d="M15.6154547,79.45 L12.4513922,79.45 C11.5778586,79.45 10.8693609,78.8230233 10.8693609,78.05 C10.8693609,77.2769767 11.5778586,76.65 12.4513922,76.65 L15.6154547,76.65 C16.4889882,76.65 17.1974859,77.2769767 17.1974859,78.05 C17.1974859,78.8230233 16.4889882,79.45 15.6154547,79.45" id="Fill-38" fill="#FFFFFF"></path>
                <path d="M24.7560797,79.45 L21.5920172,79.45 C20.7184836,79.45 20.0099859,78.8230233 20.0099859,78.05 C20.0099859,77.2769767 20.7184836,76.65 21.5920172,76.65 L24.7560797,76.65 C25.6296132,76.65 26.3381109,77.2769767 26.3381109,78.05 C26.3381109,78.8230233 25.6296132,79.45 24.7560797,79.45" id="Fill-40" fill="#FFFFFF"></path>
                <path d="M33.8967047,79.45 L30.7326422,79.45 C29.8591086,79.45 29.1506109,78.8230233 29.1506109,78.05 C29.1506109,77.2769767 29.8591086,76.65 30.7326422,76.65 L33.8967047,76.65 C34.7702382,76.65 35.4787359,77.2769767 35.4787359,78.05 C35.4787359,78.8230233 34.7702382,79.45 33.8967047,79.45" id="Fill-42" fill="#FFFFFF"></path>
            </g>
        </g>
    </g>
</svg>