<?xml version="1.0" encoding="UTF-8"?>
<svg width="90px" height="93px" viewBox="0 0 90 93" version="1.1" xmlns="http://www.w3.org/2000/svg" xmlns:xlink="http://www.w3.org/1999/xlink">
    <title>Group 15</title>
    <defs>
        <polygon id="path-1" points="0.000358963556 0.373525908 89.8494755 0.373525908 89.8494755 59.3997979 0.000358963556 59.3997979"></polygon>
        <polygon id="path-3" points="0.000179481778 0.18111269 89.8494755 0.18111269 89.8494755 12.5815403 0.000179481778 12.5815403"></polygon>
        <polygon id="path-5" points="0 93 90 93 90 0 0 0"></polygon>
    </defs>
    <g id="screen" stroke="none" stroke-width="1" fill="none" fill-rule="evenodd">
        <g id="1-1_Landing_page_home_new" transform="translate(-345.000000, -436.000000)">
            <g id="Group-15" transform="translate(345.000000, 436.000000)">
                <g id="Group-3" transform="translate(0.000000, 16.034483)">
                    <mask id="mask-2" fill="white">
                        <use xlink:href="#path-1"></use>
                    </mask>
                    <g id="Clip-2"></g>
                    <path d="M1.93606994,0.373525908 L87.913226,0.373525908 C88.9829374,0.373525908 89.8498344,1.24277676 89.8498344,2.31539271 L89.8498344,57.4579311 C89.8498344,58.530547 88.9829374,59.3997979 87.913226,59.3997979 L1.93606994,59.3997979 C0.867255951,59.3997979 0.000358963556,58.530547 0.000358963556,57.4579311 L0.000358963556,2.31539271 C0.000358963556,1.24277676 0.867255951,0.373525908 1.93606994,0.373525908" id="Fill-1" fill="#E0E0E0" mask="url(#mask-2)"></path>
                </g>
                <path d="M63.1914894,93 L26.1702128,93 L26.1702128,91.1431427 C26.1702128,89.4748443 27.2326868,87.9942071 28.8071857,87.4671398 L30.1511393,87.0163939 C33.3019243,85.9613613 35.4259787,83.0000869 35.4259787,79.6643881 L35.4259787,74.4 L53.936617,74.4 L53.936617,79.6643881 C53.936617,83.0000869 56.0606714,85.9613613 59.2096692,87.0163939 L60.5545165,87.4671398 C62.1299089,87.9942071 63.1914894,89.4748443 63.1914894,91.1431427 L63.1914894,93 Z" id="Fill-4" fill="#2A2939"></path>
                <g id="Group-8" transform="translate(0.000000, 63.496552)">
                    <mask id="mask-4" fill="white">
                        <use xlink:href="#path-3"></use>
                    </mask>
                    <g id="Clip-7"></g>
                    <path d="M0.000179481778,0.18111269 L89.8496549,0.18111269 L89.8496549,10.6438051 C89.8496549,11.7141389 88.982758,12.5815403 87.9130466,12.5815403 L1.93589046,12.5815403 C0.867076469,12.5815403 0.000179481778,11.7141389 0.000179481778,10.6438051 L0.000179481778,0.18111269 Z" id="Fill-6" fill="#413E56" mask="url(#mask-4)"></path>
                </g>
                <mask id="mask-6" fill="white">
                    <use xlink:href="#path-5"></use>
                </mask>
                <g id="Clip-10"></g>
                <polygon id="Fill-9" fill="#F2F2F2" mask="url(#mask-6)" points="40.212766 71.1931034 49.787234 71.1931034 49.787234 67.9862069 40.212766 67.9862069"></polygon>
                <path d="M71.4893617,63.4965517 L18.5106383,63.4965517 L18.5106383,4.87426166 C18.5106383,2.18251872 21.1985652,0 24.5159262,0 L65.4840738,0 C68.8014348,0 71.4893617,2.18251872 71.4893617,4.87426166 L71.4893617,63.4965517 Z" id="Fill-11" fill="#F7F6F7" mask="url(#mask-6)"></path>
                <path d="M45,6.4137931 C54.6942726,6.4137931 62.5531915,14.3106516 62.5531915,24.0517241 C62.5531915,33.7927967 54.6942726,41.6896552 45,41.6896552 C35.3057274,41.6896552 27.4468085,33.7927967 27.4468085,24.0517241 C27.4468085,14.3106516 35.3057274,6.4137931 45,6.4137931" id="Fill-12" fill="#9791EE" mask="url(#mask-6)"></path>
                <path d="M62.3244151,50.0275862 L27.6746824,50.0275862 C26.8443812,50.0275862 26.1702128,49.3100263 26.1702128,48.4241379 C26.1702128,47.5382496 26.8443812,46.8206897 27.6746824,46.8206897 L62.3244151,46.8206897 C63.1556188,46.8206897 63.8297872,47.5382496 63.8297872,48.4241379 C63.8297872,49.3100263 63.1556188,50.0275862 62.3244151,50.0275862" id="Fill-13" fill="#C7C2C9" mask="url(#mask-6)"></path>
                <path d="M42.7929563,30.7862069 C42.0451509,30.7862069 41.2973455,30.4989489 40.7272454,29.9226091 L38.3016137,27.4695171 C37.4455614,26.6050074 37.4455614,25.2024589 38.3016137,24.3379492 C39.1567638,23.4725275 40.5441278,23.4725275 41.3992779,24.3379492 L42.4826486,25.4331772 C42.6549415,25.6064439 42.930971,25.6064439 43.1032639,25.4331772 L48.5571015,19.9196478 C49.3906023,19.0770244 50.7491004,18.9985984 51.6222917,19.8020088 C52.5532147,20.6583112 52.5793744,22.1173994 51.6989666,23.0074431 L44.8577651,29.9226091 C44.288567,30.498037 43.5407616,30.7862069 42.7929563,30.7862069" id="Fill-14" fill="#FFFFFF" mask="url(#mask-6)"></path>
            </g>
        </g>
    </g>
</svg>