<?xml version="1.0" encoding="UTF-8"?>
<svg width="90px" height="92px" viewBox="0 0 90 92" version="1.1" xmlns="http://www.w3.org/2000/svg" xmlns:xlink="http://www.w3.org/1999/xlink">
    <title>Group 29</title>
    <defs>
        <polygon id="path-1" points="0.000153846154 0.079872 90.0007692 0.079872 90.0007692 81.899532 0.000153846154 81.899532"></polygon>
        <polygon id="path-3" points="0.000153846154 -0.000782352941 90.0007692 -0.000782352941 90.0007692 12.6245947 0.000153846154 12.6245947"></polygon>
    </defs>
    <g id="screen" stroke="none" stroke-width="1" fill="none" fill-rule="evenodd">
        <g id="1-1_Landing_page_home_new" transform="translate(-675.000000, -435.000000)">
            <g id="Group-29" transform="translate(675.000000, 435.000000)">
                <g id="Group-3" transform="translate(0.000000, 9.100000)">
                    <mask id="mask-2" fill="white">
                        <use xlink:href="#path-1"></use>
                    </mask>
                    <g id="Clip-2"></g>
                    <path d="M90.0009231,0.079872 L90.0009231,75.606492 C90.0009231,79.082172 87.2224615,81.899532 83.794,81.899532 L6.20630769,81.899532 C2.77861538,81.899532 0.000153846154,79.082172 0.000153846154,75.606492 L0.000153846154,0.079872 L90.0009231,0.079872 Z" id="Fill-1" fill="#ECECEC" mask="url(#mask-2)"></path>
                </g>
                <g id="Group-6">
                    <mask id="mask-4" fill="white">
                        <use xlink:href="#path-3"></use>
                    </mask>
                    <g id="Clip-5"></g>
                    <path d="M90.0009231,6.31178882 L90.0009231,12.6245947 L0.000153846154,12.6245947 L0.000153846154,6.31178882 C0.000153846154,2.82484176 2.77861538,-0.00101705882 6.20630769,-0.00101705882 L83.794,-0.00101705882 C87.2224615,-0.00101705882 90.0009231,2.82484176 90.0009231,6.31178882" id="Fill-4" fill="#9791EE" mask="url(#mask-4)"></path>
                </g>
                <path d="M6.23111238,7.7 C5.46657135,7.7 4.84615385,7.0733829 4.84615385,6.29965304 C4.84615385,5.52731103 5.46657135,4.9 6.23111238,4.9 C6.99565342,4.9 7.61538462,5.52731103 7.61538462,6.29965304 C7.61538462,7.0733829 6.99565342,7.7 6.23111238,7.7" id="Fill-7" fill="#FFFFFF"></path>
                <path d="M12.4618816,7.7 C11.6973406,7.7 11.0769231,7.0733829 11.0769231,6.29965304 C11.0769231,5.52731103 11.6973406,4.9 12.4618816,4.9 C13.2257363,4.9 13.8461538,5.52731103 13.8461538,6.29965304 C13.8461538,7.0733829 13.2257363,7.7 12.4618816,7.7" id="Fill-9" fill="#FFFFFF"></path>
                <path d="M18.6919645,7.7 C17.9274235,7.7 17.3076923,7.0733829 17.3076923,6.29965304 C17.3076923,5.52731103 17.9274235,4.9 18.6919645,4.9 C19.4565056,4.9 20.0769231,5.52731103 20.0769231,6.29965304 C20.0769231,7.0733829 19.4565056,7.7 18.6919645,7.7" id="Fill-11" fill="#FFFFFF"></path>
                <line x1="71.3076923" y1="5.95" x2="74.0769231" y2="5.95" id="Fill-13" fill="#BDC3C7"></line>
                <path d="M75.4615385,91 L14.5384615,91 L14.5384615,36.9520479 C14.5384615,33.9408652 17.6303133,31.5 21.4437516,31.5 L68.5562484,31.5 C72.3704593,31.5 75.4615385,33.9408652 75.4615385,36.9520479 L75.4615385,91 Z" id="Fill-15" fill="#F7F6F7"></path>
                <path d="M45.3457709,23.8 C57.390488,23.8 67.1538462,33.6726143 67.1538462,45.8503872 C67.1538462,58.0281601 57.390488,67.9 45.3457709,67.9 C33.3018197,67.9 23.5384615,58.0281601 23.5384615,45.8503872 C23.5384615,33.6726143 33.3018197,23.8 45.3457709,23.8" id="Fill-17" fill="#4E45D1"></path>
                <path d="M64.7462424,78.4 L25.2529901,78.4 C24.3066993,78.4 23.5384615,77.616827 23.5384615,76.6503916 C23.5384615,75.6839561 24.3066993,74.9 25.2529901,74.9 L64.7470099,74.9 C65.6933007,74.9 66.4615385,75.6839561 66.4615385,76.6503916 C66.4615385,77.616827 65.6933007,78.4 64.7462424,78.4" id="Fill-19" fill="#C7C2C9"></path>
                <path d="M44.959748,32.9 C41.2417776,32.9 37.7299353,34.6380638 35.3881963,37.4411441 L35.3881963,36.630253 C35.3881963,36.2228823 35.0602303,35.8940594 34.6556366,35.8940594 C34.2502767,35.8940594 33.9230769,36.2228823 33.9230769,36.630253 L33.9230769,39.7575358 C33.9230769,40.459846 34.8257499,40.5607261 34.6556366,40.4937294 C34.6701959,40.4937294 34.6855214,40.4929593 34.7000806,40.4921892 L37.6310858,40.309681 C38.0349131,40.2842684 38.3414235,39.9346535 38.3169026,39.529593 C38.2916155,39.1245325 37.9391286,38.8188119 37.5406652,38.839604 L36.0563889,38.9327833 C38.112307,36.1220022 41.4387105,34.3723872 44.959748,34.3723872 C51.0194574,34.3723872 55.9971853,39.3748075 55.9971853,45.4638064 C55.9971853,45.8711771 56.3243851,46.2 56.7289787,46.2 C57.1351049,46.2 57.4615385,45.8711771 57.4615385,45.4638064 C57.4615385,38.5631463 51.8271121,32.9 44.959748,32.9" id="Fill-21" fill="#FFFFFF"></path>
                <path d="M44.959748,32.9 C41.2417776,32.9 37.7299353,34.6380638 35.3881963,37.4411441 L35.3881963,36.630253 C35.3881963,36.2228823 35.0602303,35.8940594 34.6556366,35.8940594 C34.2502767,35.8940594 33.9230769,36.2228823 33.9230769,36.630253 L33.9230769,39.7575358 C33.9230769,40.459846 34.8257499,40.5607261 34.6556366,40.4937294 C34.6701959,40.4937294 34.6855214,40.4929593 34.7000806,40.4921892 L37.6310858,40.309681 C38.0349131,40.2842684 38.3414235,39.9346535 38.3169026,39.529593 C38.2916155,39.1245325 37.9391286,38.8188119 37.5406652,38.839604 L36.0563889,38.9327833 C38.112307,36.1220022 41.4387105,34.3723872 44.959748,34.3723872 C51.0194574,34.3723872 55.9971853,39.3748075 55.9971853,45.4638064 C55.9971853,45.8711771 56.3243851,46.2 56.7289787,46.2 C57.1351049,46.2 57.4615385,45.8711771 57.4615385,45.4638064 C57.4615385,38.5631463 51.8271121,32.9 44.959748,32.9 Z" id="Stroke-23" stroke="#FFFFFF" stroke-width="1.448" stroke-linecap="round" stroke-linejoin="round"></path>
                <path d="M55.2984375,50.5082503 L52.3691556,50.690748 C51.9645883,50.7161591 51.6573317,51.0657538 51.6826172,51.4707909 C51.7071364,51.876598 52.0680288,52.185381 52.4588041,52.1607399 L53.9429838,52.067566 C51.8871995,54.8781843 48.5610126,56.627698 45.0394381,56.627698 C38.9808894,56.627698 34.0034856,51.6255674 34.0034856,45.536151 C34.0034856,45.1295739 33.6755409,44.8 33.2709736,44.8 C32.8664063,44.8 32.5384615,45.1295739 32.5384615,45.536151 C32.5384615,52.4371816 38.1732873,58.1 45.0394381,58.1 C48.7579327,58.1 52.2695463,56.3628069 54.611899,53.5591188 L54.611899,54.3699629 C54.611899,54.7765401 54.9390775,55.1061139 55.3444111,55.1061139 C55.7489784,55.1061139 56.0769231,54.7765401 56.0769231,54.3699629 L56.0769231,51.2428613 C56.0769231,50.8385943 55.6907452,50.4859194 55.2984375,50.5082503" id="Fill-25" fill="#FFFFFF"></path>
                <path d="M55.2984375,50.5082503 L52.3691556,50.690748 C51.9645883,50.7161591 51.6573317,51.0657538 51.6826172,51.4707909 C51.7071364,51.876598 52.0680288,52.185381 52.4588041,52.1607399 L53.9429838,52.067566 C51.8871995,54.8781843 48.5610126,56.627698 45.0394381,56.627698 C38.9808894,56.627698 34.0034856,51.6255674 34.0034856,45.536151 C34.0034856,45.1295739 33.6755409,44.8 33.2709736,44.8 C32.8664063,44.8 32.5384615,45.1295739 32.5384615,45.536151 C32.5384615,52.4371816 38.1732873,58.1 45.0394381,58.1 C48.7579327,58.1 52.2695463,56.3628069 54.611899,53.5591188 L54.611899,54.3699629 C54.611899,54.7765401 54.9390775,55.1061139 55.3444111,55.1061139 C55.7489784,55.1061139 56.0769231,54.7765401 56.0769231,54.3699629 L56.0769231,51.2428613 C56.0769231,50.8385943 55.6907452,50.4859194 55.2984375,50.5082503 Z" id="Stroke-27" stroke="#FFFFFF" stroke-width="1.448" stroke-linecap="round" stroke-linejoin="round"></path>
            </g>
        </g>
    </g>
</svg>