<?xml version="1.0" encoding="UTF-8"?>
<svg width="62px" height="72px" viewBox="0 0 62 72" version="1.1" xmlns="http://www.w3.org/2000/svg" xmlns:xlink="http://www.w3.org/1999/xlink">
    <title>Group 21 Copy</title>
    <defs>
        <polygon id="path-1" points="0 0.347082429 51.4785424 0.347082429 51.4785424 25.1180605 0 25.1180605"></polygon>
        <polygon id="path-3" points="0.320371282 0.0708728113 56.7542201 0.0708728113 56.7542201 71.8898113 0.320371282 71.8898113"></polygon>
    </defs>
    <g id="screen" stroke="none" stroke-width="1" fill="none" fill-rule="evenodd">
        <g id="2-5_Create_acc_form_2" transform="translate(-317.000000, -827.000000)">
            <g id="Group-21-Copy" transform="translate(317.000000, 827.000000)">
                <polygon id="Fill-1" fill="#A9A6DB" points="7 71 59.339946 71 60 15.4953548 43.8754064 2.92187224 7 2"></polygon>
                <g id="Group-20">
                    <g id="Group-4" transform="translate(0.000000, 31.920283)">
                        <mask id="mask-2" fill="white">
                            <use xlink:href="#path-1"></use>
                        </mask>
                        <g id="Clip-3"></g>
                        <path d="M43.378156,6.26558325 L42.7344114,6.26558325 C40.3579712,6.26558325 37.9785228,6.28380571 35.6050908,6.25343495 C35.0215092,6.24432373 34.8620772,6.40528873 34.8680935,6.99448137 C34.8951668,10.8637155 34.8801261,14.7299126 34.8831342,18.5961097 C34.8831342,18.808705 34.9102076,19.0213002 34.9222402,19.252118 L37.073069,19.252118 L37.073069,13.9281247 L42.6772565,13.9281247 L42.6772565,11.850765 L37.0881098,11.850765 L37.0881098,8.29434967 L43.378156,8.29434967 L43.378156,6.26558325 Z M10.2343353,19.1670799 L10.2343353,15.3980692 C11.2871886,15.3980692 12.2738625,15.4405883 13.2575283,15.388958 C14.6894087,15.309994 16.0521016,14.9637674 17.0658489,13.8491607 C17.9592701,12.8651483 18.0826043,11.6351327 18.0284576,10.359561 C17.9592701,8.67702118 16.9756043,7.27996646 15.4083571,6.72721873 C13.0529739,5.89202297 10.6163707,6.37491797 8.21586522,6.30506524 C8.1857837,6.30506524 8.14968587,6.35669552 8.11960435,6.3840292 L8.11960435,19.1670799 L10.2343353,19.1670799 Z M20.6184766,6.15928561 L20.6184766,19.1184867 C22.6670283,19.1184867 24.6734658,19.2308584 26.6588462,19.0820417 C28.1208082,18.96967 29.4865092,18.3106246 30.5062728,17.202092 C33.0902755,14.3897601 33.1053163,7.82967712 27.347713,6.5449942 C25.2179413,6.07121042 22.937762,6.27165741 20.6184766,6.15928561 L20.6184766,6.15928561 Z M25.7203027,25.1167107 C18.5909821,25.1167107 11.4616614,25.1197478 4.33234076,25.1167107 C2.14842228,25.1136736 0.641338043,24.0294377 0.144992935,22.0735611 C0.0246668478,21.6088885 0.00962608696,21.1077711 0.00661793478,20.621839 C-0.00240652174,15.3555501 -0.00240652174,10.0892613 0.00360978261,4.81993533 C0.00661793478,1.96204731 1.60093859,0.349360236 4.41656902,0.349360236 C18.630088,0.34632316 32.8496234,0.34632316 47.0661505,0.349360236 C49.3252728,0.349360236 50.8143082,1.38500297 51.3437429,3.35910203 C51.4520364,3.75695892 51.4700853,4.19126071 51.4700853,4.61037712 C51.4791098,10.0072602 51.4821179,15.4102175 51.4730935,20.8101377 C51.4700853,23.4827641 49.842675,25.1136736 47.174444,25.1167107 C40.0240663,25.1197478 32.8706804,25.1167107 25.7203027,25.1167107 L25.7203027,25.1167107 Z" id="Fill-2" fill="#4E45D1" mask="url(#mask-2)"></path>
                    </g>
                    <g id="Group-7" transform="translate(4.548913, 0.000000)">
                        <mask id="mask-4" fill="white">
                            <use xlink:href="#path-3"></use>
                        </mask>
                        <g id="Clip-6"></g>
                        <path d="M42.0606,4.57485574 L42.0606,14.888764 L52.2732766,14.888764 C48.8710565,11.4538317 45.4537957,8.00067687 42.0606,4.57485574 L42.0606,4.57485574 Z M54.3007712,17.4186479 L53.4344234,17.4186479 C49.4065076,17.4186479 45.3816,17.421685 41.3506761,17.4186479 C39.9759505,17.4186479 39.5728582,17.0177539 39.5728582,15.6389217 C39.56985,11.5692405 39.5728582,7.50259649 39.5728582,3.43595243 L39.5728582,2.57038592 L38.7185429,2.57038592 C27.6665918,2.57038592 16.6176489,2.57038592 5.56569783,2.57038592 C3.62543967,2.57038592 2.78917337,3.41469291 2.78917337,5.37056951 C2.78616522,12.9723694 2.78917337,20.5741693 2.78616522,28.1759692 C2.78616522,29.2693164 2.38908913,29.776508 1.54981467,29.7613226 C0.945176087,29.7522114 0.551108152,29.4363555 0.412733152,28.8441258 C0.352570109,28.567752 0.343545652,28.2731556 0.343545652,27.9846335 C0.3405375,20.4496492 0.349561957,12.914665 0.334521196,5.37968074 C0.331513043,3.23854253 1.1016,1.54385442 3.05088261,0.593249792 C3.71869239,0.268282717 4.52788533,0.0982064906 5.27390707,0.0982064906 C17.0057005,0.0678357358 28.737494,0.0799840377 40.4722957,0.0708728113 C41.0167712,0.0708728113 41.4409207,0.243986113 41.822956,0.629694698 C46.6029098,5.45257055 51.3888799,10.2724093 56.1778582,15.0831369 C56.6651788,15.572106 56.7554578,16.1400391 56.7554578,16.7838991 C56.7494071,27.7204079 56.7494071,38.6569167 56.7494071,49.5934255 C56.7494071,55.2606083 56.7403826,60.9308282 56.7554578,66.598011 C56.7614397,68.7391492 55.9793201,70.4308003 54.0300375,71.3753307 C53.3622277,71.7002978 52.5500266,71.867337 51.8040049,71.867337 C36.309013,71.8946706 20.8140212,71.8946706 5.3160212,71.8825223 C2.42518696,71.8825223 0.439806522,69.9236087 0.355578261,66.9624601 C0.295415217,64.9640644 0.325496739,62.9626317 0.349561957,60.9611989 C0.364602717,59.8648147 1.11964891,59.2695479 2.01307011,59.6036262 C2.6177087,59.8283698 2.79218152,60.3173389 2.78917337,60.9277911 C2.78315707,62.8411487 2.78616522,64.7514691 2.78917337,66.6617896 C2.79218152,68.5326281 3.64348859,69.3921205 5.50252663,69.3921205 C20.8651598,69.3951575 36.2308011,69.3951575 51.5934342,69.3921205 C53.4133663,69.3921205 54.297763,68.5204798 54.297763,66.7225311 C54.3007712,50.4984739 54.3007712,34.2713797 54.3007712,18.0442855 L54.3007712,17.4186479 Z" id="Fill-5" fill="#4E45D1" mask="url(#mask-4)"></path>
                    </g>
                    <path d="M22.7822405,49.0500927 C23.8651753,49.0500927 24.8729063,49.065278 25.8806372,49.0470556 C28.3202486,48.9984624 30.0318872,47.2582181 29.9957894,44.8042611 C29.9747323,43.2887605 29.6137541,41.8765204 28.2209796,41.013991 C26.5213736,39.9570887 24.6382704,40.2607962 22.7822405,40.2456109 L22.7822405,49.0500927 Z M20.6163709,38.080176 C22.9386644,38.1925478 25.2188438,37.9921009 27.3486155,38.4658846 C33.1062188,39.7475305 33.091178,46.3106506 30.5041671,49.1229825 C29.4874117,50.231515 28.1187024,50.8905604 26.6597486,51.0029322 C24.6743682,51.1517489 22.6679307,51.0393771 20.6163709,51.0393771 L20.6163709,38.080176 Z" id="Fill-8" fill="#FFFFFF"></path>
                    <path d="M10.244563,45.3442532 C11.3365223,45.3442532 12.3683185,45.3898093 13.3940984,45.3229936 C13.8573538,45.2926229 14.3506908,45.1195096 14.7537832,44.8826177 C15.7464734,44.2964621 15.9901337,43.3124497 15.9209462,42.237325 C15.8637913,41.3778326 15.3945196,40.78864 14.6063837,40.4849324 C13.1865359,39.9382588 11.7185576,40.1781878 10.244563,40.1569283 L10.244563,45.3442532 Z M10.2355386,51.0873629 L8.12080761,51.0873629 L8.12080761,38.3043122 C8.15088913,38.2769785 8.1839788,38.2253483 8.21406033,38.2253483 C10.6175739,38.295201 13.0541772,37.812306 15.4095603,38.6475017 C16.9737995,39.2032866 17.9574652,40.6003413 18.0296609,42.279844 C18.0807995,43.5554157 17.9574652,44.7854313 17.0670522,45.7694437 C16.0533049,46.8840504 14.690612,47.230277 13.2587315,47.309241 C12.2750658,47.3639083 11.2883918,47.3183522 10.2355386,47.3183522 L10.2355386,51.0873629 Z" id="Fill-10" fill="#FFFFFF"></path>
                    <path d="M43.378156,38.1858663 L43.378156,40.2146327 L37.0881098,40.2146327 L37.0881098,43.7710481 L42.6772565,43.7710481 L42.6772565,45.8484077 L37.073069,45.8484077 L37.073069,51.172401 L34.9222402,51.172401 C34.9102076,50.9415833 34.8831342,50.728988 34.8831342,50.5163927 C34.8801261,46.6501956 34.8951668,42.7839985 34.8680935,38.9147644 C34.8620772,38.3255717 35.0215092,38.1646067 35.6050908,38.173718 C37.9785228,38.2040887 40.3579712,38.1858663 42.7344114,38.1858663 L43.378156,38.1858663 Z" id="Fill-12" fill="#FFFFFF"></path>
                    <path d="M46.609513,4.57485574 C50.0027087,8.00067687 53.4199696,11.4538317 56.8221897,14.888764 L46.609513,14.888764 L46.609513,4.57485574 Z" id="Fill-14" fill="#FFFFFF"></path>
                    <path d="M22.7822405,49.0500927 L22.7822405,40.2456109 C24.6382704,40.2607962 26.5213736,39.9570887 28.2209796,41.013991 C29.6137541,41.8765204 29.9747323,43.2887605 29.9957894,44.8042611 C30.0318872,47.2582181 28.3202486,48.9984624 25.8806372,49.0470556 C24.8729062,49.065278 23.8651753,49.0500927 22.7822405,49.0500927" id="Fill-16" fill="#4E45D1"></path>
                    <path d="M10.244563,45.3442532 L10.244563,40.1569283 C11.7185576,40.1781878 13.1865359,39.9382588 14.6063837,40.4849324 C15.3945196,40.78864 15.8637913,41.3778326 15.9209462,42.237325 C15.9901337,43.3124497 15.7464734,44.2964621 14.7537832,44.8826177 C14.3506908,45.1195096 13.8573538,45.2926229 13.3940984,45.3229936 C12.3683185,45.3898093 11.3365223,45.3442532 10.244563,45.3442532" id="Fill-18" fill="#4E45D1"></path>
                </g>
            </g>
        </g>
    </g>
</svg>